<svg width="118" height="118" viewBox="0 0 118 118" fill="none" xmlns="http://www.w3.org/2000/svg">
<path d="M80.535 51.1825C82.7967 51.1825 84.6896 50.4204 86.2137 48.8963C87.7379 47.3721 88.5 45.4792 88.5 43.2175C88.5 40.9558 87.7379 39.0629 86.2137 37.5388C84.6896 36.0146 82.7967 35.2525 80.535 35.2525C78.2733 35.2525 76.3804 36.0146 74.8563 37.5388C73.3321 39.0629 72.57 40.9558 72.57 43.2175C72.57 45.4792 73.3321 47.3721 74.8563 48.8963C76.3804 50.4204 78.2733 51.1825 80.535 51.1825ZM37.465 51.1825C39.7267 51.1825 41.6196 50.4204 43.1437 48.8963C44.6679 47.3721 45.43 45.4792 45.43 43.2175C45.43 40.9558 44.6679 39.0629 43.1437 37.5388C41.6196 36.0146 39.7267 35.2525 37.465 35.2525C35.2033 35.2525 33.3104 36.0146 31.7862 37.5388C30.2621 39.0629 29.5 40.9558 29.5 43.2175C29.5 45.4792 30.2621 47.3721 31.7862 48.8963C33.3104 50.4204 35.2033 51.1825 37.465 51.1825ZM59 68.2925C52.4117 68.2925 46.4379 70.1363 41.0787 73.8238C35.7196 77.5113 31.7617 82.4033 29.205 88.5H37.0225C39.1858 84.37 42.2587 81.1742 46.2412 78.9125C50.2237 76.6508 54.5258 75.52 59.1475 75.52C63.7692 75.52 68.0221 76.6508 71.9062 78.9125C75.7904 81.1742 78.8633 84.37 81.125 88.5H88.795C86.3367 82.4033 82.4033 77.5113 76.995 73.8238C71.5867 70.1363 65.5883 68.2925 59 68.2925ZM59 118C50.9367 118 43.3158 116.451 36.1375 113.354C28.9592 110.256 22.6904 106.028 17.3313 100.669C11.9721 95.3096 7.74375 89.0408 4.64625 81.8625C1.54875 74.6842 0 67.0142 0 58.8525C0 50.7892 1.54875 43.1683 4.64625 35.99C7.74375 28.8117 11.9721 22.5675 17.3313 17.2575C22.6904 11.9475 28.9592 7.74375 36.1375 4.64625C43.3158 1.54875 50.9858 0 59.1475 0C67.2108 0 74.8317 1.54875 82.01 4.64625C89.1883 7.74375 95.4325 11.9475 100.743 17.2575C106.053 22.5675 110.256 28.8117 113.354 35.99C116.451 43.1683 118 50.8383 118 59C118 67.0633 116.451 74.6842 113.354 81.8625C110.256 89.0408 106.053 95.3096 100.743 100.669C95.4325 106.028 89.1883 110.256 82.01 113.354C74.8317 116.451 67.1617 118 59 118ZM59 109.15C72.9633 109.15 84.8125 104.258 94.5475 94.4738C104.283 84.6896 109.15 72.865 109.15 59C109.15 45.0367 104.283 33.1875 94.5475 23.4525C84.8125 13.7175 72.9633 8.85 59 8.85C45.135 8.85 33.3104 13.7175 23.5263 23.4525C13.7421 33.1875 8.85 45.0367 8.85 59C8.85 72.865 13.7421 84.6896 23.5263 94.4738C33.3104 104.258 45.135 109.15 59 109.15Z" fill="#FF7A00"/>
</svg>
