<svg width="16" height="16" viewBox="0 0 16 16" fill="none" xmlns="http://www.w3.org/2000/svg">
<rect width="16" height="16" fill="#6120C9"/>
<path d="M12.3366 6.12632C12.7921 6.12632 13.1733 5.97675 13.4802 5.67763C13.7871 5.37851 13.9406 5.00702 13.9406 4.56316C13.9406 4.1193 13.7871 3.74781 13.4802 3.44868C13.1733 3.14956 12.7921 3 12.3366 3C11.8812 3 11.5 3.14956 11.1931 3.44868C10.8861 3.74781 10.7327 4.1193 10.7327 4.56316C10.7327 5.00702 10.8861 5.37851 11.1931 5.67763C11.5 5.97675 11.8812 6.12632 12.3366 6.12632ZM3.66337 6.12632C4.11881 6.12632 4.5 5.97675 4.80693 5.67763C5.11386 5.37851 5.26733 5.00702 5.26733 4.56316C5.26733 4.1193 5.11386 3.74781 4.80693 3.44868C4.5 3.14956 4.11881 3 3.66337 3C3.20792 3 2.82673 3.14956 2.5198 3.44868C2.21287 3.74781 2.05941 4.1193 2.05941 4.56316C2.05941 5.00702 2.21287 5.37851 2.5198 5.67763C2.82673 5.97675 3.20792 6.12632 3.66337 6.12632ZM8 14C9.30693 14 10.5099 13.6575 11.6089 12.9724C12.7079 12.2873 13.505 11.3561 14 10.1789H12.4554C12 10.9509 11.3762 11.5443 10.5842 11.9592C9.79208 12.3741 8.94059 12.5816 8.0297 12.5816C7.09901 12.5816 6.23267 12.3789 5.43069 11.9737C4.62871 11.5684 4.0099 10.9702 3.57426 10.1789H2C2.51485 11.3561 3.31683 12.2873 4.40594 12.9724C5.49505 13.6575 6.69307 14 8 14Z" fill="#EEFCFF"/>
</svg>
